<?xml version="1.0" encoding="UTF-8"?>
<svg id="Layer_1" data-name="Layer 1" xmlns="http://www.w3.org/2000/svg" viewBox="0 0 1500 619.12">
  <defs>
    <style>
      .cls-1 {
        fill: #113189;
        stroke-width: 0px;
      }
    </style>
  </defs>
  <path class="cls-1" d="M179.17,220.21c-47.2-12.69-95.93-24.36-95.93-59.89,0-24.36,29.44-44.66,68.52-44.16,45.68.51,73.6,25.89,73.6,60.4h75.12c0-73.6-61.92-126.88-147.7-126.88C72.58,49.67,7.11,101.44,7.61,165.39c0,77.15,68.01,92.88,127.9,109.12,47.71,13.71,96.94,24.87,96.94,58.88,0,29.94-34.01,46.18-76.13,45.68-47.71-.51-80.19-25.37-80.19-59.38H0c0,74.1,65.47,124.86,155.31,124.86s153.79-46.18,153.28-115.72c-1.01-75.63-70.04-91.36-129.42-108.61Z"/>
  <path class="cls-1" d="M427.19,291.27v-49.23h75.63v-58.37h-75.63v-78.23h-76.13v189.89c0,86.79,44.66,144.15,129.42,144.15h24.36v-64.46c-58.88,1.02-77.66-29.44-77.66-83.74Z"/>
  <path class="cls-1" d="M539.35,309.03v128.41h76.13v-111.16c0-60.4,38.58-83.24,76.13-83.24v-66.49c-77.15,0-152.27,50.25-152.27,132.47Z"/>
  <path class="cls-1" d="M710.94,310.55c.51,82.73,69.03,133.99,143.64,133.99,24.87,0,49.23-6.09,70.55-16.75v9.64h72.07v-126.89c0-82.73-69.53-133.99-143.64-133.99s-142.62,50.76-142.62,133.99ZM921.57,310.55c0,41.62-31.47,69.53-67.5,69.53s-67.5-27.91-67.5-69.53,30.96-70.55,67.5-70.55,67.5,28.42,67.5,70.55Z"/>
  <path class="cls-1" d="M1191.37,375.01c-58.88,1.02-77.66-29.44-77.66-83.74v-49.23h75.62v-58.37h-75.62v-78.23h-76.14v189.89c0,86.79,44.67,144.15,129.43,144.15h24.36v-64.46Z"/>
  <path class="cls-1" d="M1356.36,176.56c-73.6,0-142.62,50.76-142.62,133.99.51,82.73,69.03,133.99,143.64,133.99,24.87,0,49.23-6.09,70.55-16.75v9.64h72.08v-126.89c0-82.73-69.53-133.99-143.64-133.99ZM1356.87,380.09c-36.54,0-67.5-27.91-67.5-69.53s30.96-70.55,67.5-70.55,67.5,28.42,67.5,70.55-31.47,69.53-67.5,69.53Z"/>
  <polygon class="cls-1" points="574.53 129.08 600.35 129.08 600.35 25.47 638.9 25.47 638.9 0 535.81 0 535.81 25.47 574.53 25.47 574.53 129.08"/>
  <polygon class="cls-1" points="753.02 129.08 778.49 129.08 778.49 0 753.02 0 753.02 51.63 695.19 51.63 695.19 0 669.55 0 669.55 129.08 695.19 129.08 695.19 76.25 753.02 76.25 753.02 129.08"/>
  <polygon class="cls-1" points="909.83 106.02 841.33 106.02 841.33 75.73 892.79 75.73 892.79 53.35 841.33 53.35 841.33 23.06 909.83 23.06 909.83 0 815.68 0 815.68 129.08 909.83 129.08 909.83 106.02"/>
  <path class="cls-1" d="M770.76,492.02h-59.82v127.1h25.25v-45.92h33.55c9.15,0,17.29,7.12,17.29,17.79v28.13h25.59v-28.13c0-11.18-4.58-21.52-12.2-29.14,7.63-7.29,12.2-17.62,12.2-29.15,0-21.69-17.12-40.67-41.86-40.67ZM769.74,550.31h-33.55v-35.08h33.55c9.15,0,17.29,6.78,17.29,17.45s-8.13,17.62-17.29,17.62Z"/>
  <polygon class="cls-1" points="848.89 619.12 941.59 619.12 941.59 596.41 874.14 596.41 874.14 566.58 924.81 566.58 924.81 544.55 874.14 544.55 874.14 514.73 941.59 514.73 941.59 492.02 848.89 492.02 848.89 619.12"/>
  <polygon class="cls-1" points="1031.58 586.92 995.32 492.02 968.2 492.02 1017.01 619.12 1045.98 619.12 1094.96 492.02 1067.84 492.02 1031.58 586.92"/>
  <rect class="cls-1" x="1123.61" y="492.02" width="25.25" height="127.1"/>
  <polygon class="cls-1" points="1185.29 619.12 1277.99 619.12 1277.99 596.41 1210.55 596.41 1210.55 566.58 1261.21 566.58 1261.21 544.55 1210.55 544.55 1210.55 514.73 1277.99 514.73 1277.99 492.02 1185.29 492.02 1185.29 619.12"/>
  <polygon class="cls-1" points="1438.82 580.31 1415.44 492.02 1389 492.02 1365.62 580.31 1331.72 492.02 1304.61 492.02 1353.42 619.12 1380.53 619.12 1402.39 533.71 1423.91 619.12 1450.85 619.12 1500 492.02 1472.72 492.02 1438.82 580.31"/>
</svg>